<svg width="94" height="271" viewBox="0 0 94 271" fill="none" xmlns="http://www.w3.org/2000/svg">
<path d="M-274.968 170.541C-275.874 204.334 -257.675 251.123 -220.212 242.675C-191.895 236.29 -217.661 204.154 -182.84 185.981C-148.019 167.807 -102.59 173.269 -80.8614 203.192C-64.8608 225.226 -93.2195 246.254 -80.8614 270.01C-52.4556 324.615 88.4445 312.594 93.8342 252.799C97.4069 213.164 42.2306 207.401 25.1728 170.541C4.44717 125.757 46.936 85.6182 13.2946 47.2812C-12.1466 18.2889 -41.2008 -8.84112 -80.8614 2.73538C-132.369 17.77 -31.6103 104.234 -80.8614 124.224C-103.743 133.511 -120.512 127.469 -145.467 124.224C-175.972 120.257 -190.289 95.4283 -220.212 101.951C-256.481 109.857 -274.092 137.893 -274.968 170.541Z" fill="url(#paint0_linear_1_25)" fill-opacity="0.6"/>
<defs>
<linearGradient id="paint0_linear_1_25" x1="-275" y1="0" x2="24.5491" y2="362.405" gradientUnits="userSpaceOnUse">
<stop stop-color="#FF6FD8"/>
<stop offset="1" stop-color="#3813C2"/>
</linearGradient>
</defs>
</svg>
